<?xml version="1.0" encoding="UTF-8"?><svg id="Layer_1" xmlns="http://www.w3.org/2000/svg" viewBox="0 0 542.44 179.04"><defs><style>.cls-1{letter-spacing:-.02em;}.cls-1,.cls-2,.cls-3{fill:#999;}.cls-1,.cls-2,.cls-3,.cls-4,.cls-5,.cls-6,.cls-7,.cls-8,.cls-9,.cls-10,.cls-11{font-family:ChaletBook-Bold, ChaletBook;font-weight:700;}.cls-2,.cls-10{letter-spacing:-.01em;}.cls-12,.cls-13{fill:none;stroke:#bbbbba;stroke-miterlimit:10;}.cls-14{letter-spacing:.1em;}.cls-14,.cls-15,.cls-16{font-size:8px;}.cls-14,.cls-17,.cls-18,.cls-19,.cls-20,.cls-21,.cls-22,.cls-16{font-family:ChaletBook, ChaletBook;}.cls-3{letter-spacing:-.01em;}.cls-4{font-size:10px;}.cls-23,.cls-17,.cls-18,.cls-19,.cls-20,.cls-21,.cls-22{fill:#bbbbba;}.cls-5{letter-spacing:-.02em;}.cls-5,.cls-7,.cls-11{fill:#777;}.cls-6{font-size:24px;}.cls-6,.cls-8,.cls-9,.cls-10{fill:#565555;}.cls-7{letter-spacing:-.01em;}.cls-24{font-size:7.35px;}.cls-15{fill:#333;font-family:ChaletBook-Italic, ChaletBook;font-style:italic;}.cls-8{letter-spacing:-.03em;}.cls-9,.cls-11{letter-spacing:-.01em;}.cls-17{letter-spacing:-.01em;}.cls-18{letter-spacing:-.02em;}.cls-19{letter-spacing:-.02em;}.cls-20{letter-spacing:0em;}.cls-21{letter-spacing:-.03em;}.cls-22{letter-spacing:0em;}.cls-25{letter-spacing:-.03em;}.cls-26{letter-spacing:-.04em;}.cls-27{letter-spacing:-.03em;}.cls-28{letter-spacing:-.03em;}.cls-29{letter-spacing:-.04em;}.cls-30{letter-spacing:-.03em;}.cls-13{stroke-dasharray:11.54 11.54;}.cls-31{fill:#fbfbfb;}</style></defs><rect class="cls-31" width="542.44" height="179.04"/><text class="cls-14" transform="translate(26.52 75.61)"><tspan x="0" y="0">INPUT</tspan></text><text class="cls-14" transform="translate(479.85 75.61)"><tspan x="0" y="0">OUTPUT</tspan></text><polygon class="cls-23" points="171.73 103.14 64.63 103.14 59.61 99.14 167.73 99.14 167.73 45.23 171.73 49.66 171.73 103.14"/><polygon class="cls-23" points="322.01 103.14 213.74 103.14 209.89 99.14 318.01 99.14 318.01 45.23 322.01 50.31 322.01 103.14"/><text transform="translate(89.21 72.05)"><tspan class="cls-4"><tspan x="0" y="0">EncDec Pre</tspan></tspan><tspan class="cls-16"><tspan x="22.69" y="9.6">Gain+EQ</tspan></tspan></text><text transform="translate(240.68 72.05)"><tspan class="cls-4"><tspan x="0" y="0">Your plugin</tspan></tspan><tspan class="cls-16"><tspan x=".66" y="9.6">(Comp, dist …)</tspan></tspan></text><polygon class="cls-23" points="472.29 103.14 365.08 103.14 360.17 99.14 468.29 99.14 468.29 45.23 472.29 50.05 472.29 103.14"/><text transform="translate(385.35 72.05)"><tspan class="cls-4"><tspan x="0" y="0">EncDec Post</tspan></tspan><tspan class="cls-16"><tspan x="20.63" y="9.6">(Inversion)</tspan></tspan></text><line class="cls-12" x1="114.67" y1="101.14" x2="114.67" y2="107.14"/><polyline class="cls-12" points="114.67 115.34 114.67 121.34 120.67 121.34"/><line class="cls-13" x1="132.21" y1="121.34" x2="403.46" y2="121.34"/><polyline class="cls-12" points="409.23 121.34 415.23 121.34 415.23 115.34"/><line class="cls-12" x1="415.23" y1="107.14" x2="415.23" y2="101.14"/><text class="cls-15" transform="translate(209.89 142.6)"><tspan x="0" y="0">Shared parameters (via gmem)</tspan></text><polygon class="cls-23" points="194.72 74.43 191.96 71.92 191.96 73.02 180.93 73.02 183.56 75.18 194.72 75.18 194.72 74.43"/><polygon class="cls-23" points="201.08 71.74 201.08 73.02 189.91 78.14 192.12 80.34 203.28 75.22 203.28 73.95 201.08 71.74"/><polygon class="cls-23" points="198.23 72.97 199.53 72.38 189.91 67.99 192.12 70.19 198.23 72.97"/><polygon class="cls-23" points="342.7 74.43 339.95 71.92 339.95 73.02 328.92 73.02 331.54 75.18 342.7 75.18 342.7 74.43"/><polygon class="cls-23" points="349.06 71.74 349.06 73.02 337.89 78.14 340.1 80.34 351.26 75.22 351.26 73.95 349.06 71.74"/><polygon class="cls-23" points="346.21 72.97 347.51 72.38 337.89 67.99 340.1 70.19 346.21 72.97"/><text class="cls-6" transform="translate(16.87 33.9)"><tspan class="cls-26" x="0" y="0">E</tspan><tspan class="cls-29" x="13.19" y="0">n</tspan><tspan class="cls-27" x="26.13" y="0">c</tspan><tspan class="cls-30" x="38.87" y="0">D</tspan><tspan class="cls-28" x="54.04" y="0">e</tspan><tspan class="cls-25" x="67.27" y="0">c</tspan></text><text class="cls-24" transform="translate(443.33 164.06)"><tspan class="cls-22" x="0" y="0">S</tspan><tspan class="cls-21" x="4.3" y="0">t</tspan><tspan class="cls-17" x="6.59" y="0">u</tspan><tspan class="cls-18" x="10.69" y="0">d</tspan><tspan class="cls-19" x="15.04" y="0">i</tspan><tspan class="cls-20" x="16.67" y="0">o</tspan><tspan class="cls-2" x="20.89" y="0">Sho</tspan><tspan class="cls-3" x="33.84" y="0">u</tspan><tspan class="cls-1" x="37.97" y="0">t</tspan><tspan class="cls-7" x="40.42" y="0">Sho</tspan><tspan class="cls-11" x="53.38" y="0">u</tspan><tspan class="cls-5" x="57.5" y="0">t</tspan><tspan class="cls-10" x="59.96" y="0">Sho</tspan><tspan class="cls-9" x="72.91" y="0">u</tspan><tspan class="cls-8" x="77.04" y="0">t</tspan></text></svg>