<?xml version="1.0" encoding="UTF-8"?><svg id="Layer_1" xmlns="http://www.w3.org/2000/svg" viewBox="0 0 542.44 179.04"><defs><style>.cls-1,.cls-2{fill:none;stroke:#bbbbba;stroke-miterlimit:10;}.cls-3{fill:#777;}.cls-4{fill:#bbbbba;}.cls-5{fill:#565555;}.cls-6{fill:#333;}.cls-2{stroke-dasharray:11.54 11.54;}.cls-7{fill:#fbfbfb;}.cls-8{fill:#999;}</style></defs><rect class="cls-7" width="542.44" height="179.04"/><path d="M27.23,70.17h.7v5.44h-.7v-5.44Z"/><path d="M30.13,70.17h.78l2.69,4.34v-4.34h.64v5.44h-.71l-2.76-4.44v4.44h-.64v-5.44Z"/><path d="M36.42,70.17h2.21c1.09,0,1.73.68,1.73,1.65s-.65,1.64-1.73,1.64h-1.5v2.15h-.7v-5.44ZM38.63,72.83c.61,0,1.02-.3,1.02-1.01s-.42-1.02-1.02-1.02h-1.5v2.02h1.5Z"/><path d="M42,73.59v-3.41h.7v3.41c0,.97.5,1.5,1.38,1.5s1.38-.53,1.38-1.5v-3.41h.7v3.41c0,1.35-.88,2.12-2.08,2.12s-2.09-.77-2.09-2.12Z"/><path d="M49.39,70.8h-1.64v-.63h3.98v.63h-1.64v4.81h-.7v-4.81Z"/><path d="M480.21,72.88c0-1.66,1.18-2.81,2.63-2.81s2.63,1.12,2.63,2.81-1.18,2.82-2.63,2.82-2.63-1.15-2.63-2.82ZM484.74,72.88c0-1.37-.79-2.2-1.9-2.2s-1.9.86-1.9,2.2.82,2.21,1.9,2.21,1.9-.86,1.9-2.21Z"/><path d="M487.21,73.59v-3.41h.7v3.41c0,.97.5,1.5,1.38,1.5s1.38-.53,1.38-1.5v-3.41h.7v3.41c0,1.35-.88,2.12-2.08,2.12s-2.09-.77-2.09-2.12Z"/><path d="M494.61,70.8h-1.64v-.63h3.98v.63h-1.64v4.81h-.7v-4.81Z"/><path d="M498.64,70.17h2.21c1.09,0,1.73.68,1.73,1.65s-.65,1.64-1.73,1.64h-1.5v2.15h-.7v-5.44ZM500.85,72.83c.61,0,1.02-.3,1.02-1.01s-.42-1.02-1.02-1.02h-1.5v2.02h1.5Z"/><path d="M504.22,73.59v-3.41h.7v3.41c0,.97.5,1.5,1.38,1.5s1.38-.53,1.38-1.5v-3.41h.7v3.41c0,1.35-.88,2.12-2.08,2.12s-2.09-.77-2.09-2.12Z"/><path d="M511.61,70.8h-1.64v-.63h3.98v.63h-1.64v4.81h-.7v-4.81Z"/><polygon class="cls-4" points="171.73 103.14 64.63 103.14 59.61 99.14 167.73 99.14 167.73 45.23 171.73 49.66 171.73 103.14"/><polygon class="cls-4" points="322.01 103.14 213.74 103.14 209.89 99.14 318.01 99.14 318.01 45.23 322.01 50.31 322.01 103.14"/><path d="M89.86,65.25h4.77v1.18h-3.48v1.48h2.94v1.19h-2.94v1.76h3.55v1.19h-4.84v-6.8Z"/><path d="M95.68,66.9h1.22v.81c.24-.61.85-.94,1.48-.94,1.14,0,1.84.84,1.84,2.25v3.03h-1.26v-3.03c0-.63-.27-1.09-.98-1.09s-1.04.46-1.04,1.09v3.03h-1.26v-5.15Z"/><path d="M101.13,69.48c0-1.56,1.2-2.71,2.62-2.71,1.21,0,2.14.74,2.4,1.86h-1.31c-.15-.47-.56-.74-1.09-.74-.72,0-1.31.6-1.31,1.6s.59,1.56,1.31,1.56c.59,0,.96-.3,1.1-.74h1.32c-.26,1.12-1.17,1.86-2.42,1.86-1.42,0-2.62-1.13-2.62-2.69Z"/><path d="M107.09,65.25h2.44c1.95,0,3.21,1.3,3.21,3.4s-1.29,3.4-3.21,3.4h-2.44v-6.8ZM109.53,70.86c1.59,0,1.88-1.4,1.88-2.22,0-1-.36-2.21-1.88-2.21h-1.15v4.43h1.15Z"/><path d="M114.71,69.88c.12.78.64,1.17,1.4,1.17.47,0,.83-.17,1.02-.48h1.35c-.3,1.03-1.19,1.6-2.37,1.6-1.51,0-2.71-1.13-2.71-2.69s1.16-2.71,2.61-2.71c1.63,0,2.76,1.35,2.58,3.11h-3.88ZM114.74,68.98h2.53c-.13-.71-.6-1.11-1.26-1.11-.6,0-1.11.41-1.27,1.11Z"/><path d="M119.24,69.48c0-1.56,1.2-2.71,2.62-2.71,1.21,0,2.14.74,2.4,1.86h-1.31c-.15-.47-.56-.74-1.09-.74-.72,0-1.31.6-1.31,1.6s.59,1.56,1.31,1.56c.59,0,.96-.3,1.1-.74h1.32c-.26,1.12-1.17,1.86-2.42,1.86-1.42,0-2.62-1.13-2.62-2.69Z"/><path d="M128.2,65.25h2.64c1.57,0,2.44.87,2.44,2.2s-.92,2.15-2.41,2.15h-1.37v2.45h-1.3v-6.8ZM130.83,68.45c.75,0,1.16-.31,1.16-1s-.41-1.04-1.16-1.04h-1.33v2.04h1.33Z"/><path d="M134.17,66.9h1.26v.91c.36-.84,1.2-1.03,1.84-.97v1.26c-1.15-.17-1.78.35-1.78,1.29v2.66h-1.32v-5.15Z"/><path d="M139.08,69.88c.12.78.64,1.17,1.4,1.17.47,0,.83-.17,1.02-.48h1.35c-.3,1.03-1.19,1.6-2.37,1.6-1.51,0-2.71-1.13-2.71-2.69s1.16-2.71,2.61-2.71c1.63,0,2.76,1.35,2.58,3.11h-3.88ZM139.11,68.98h2.53c-.13-.71-.6-1.11-1.26-1.11-.6,0-1.11.41-1.27,1.11Z"/><path d="M112.26,78.92c0-1.66,1.17-2.81,2.6-2.81,1.05,0,2.04.56,2.33,1.73h-.7c-.23-.78-.9-1.11-1.62-1.11-1.1,0-1.87.86-1.87,2.2s.78,2.21,1.87,2.21,1.76-.74,1.81-1.63h-1.51v-.64h2.17v2.79h-.66v-.9c-.31.53-.87,1-1.81,1-1.44,0-2.6-1.15-2.6-2.82Z"/><path d="M118.1,80.59c0-.79.62-1.12,1.5-1.25.82-.13,1.27-.22,1.27-.65,0-.47-.3-.66-.9-.66-.5,0-.92.22-.98.69h-.69c.05-.77.7-1.29,1.67-1.29,1.07,0,1.55.5,1.55,1.26v2.13c0,.33.1.67.16.83h-.65c-.06-.12-.13-.31-.15-.56-.25.37-.76.66-1.41.66-.77,0-1.38-.34-1.38-1.15ZM120.87,80.15v-.69c-.17.15-.52.29-1.25.42-.62.12-.87.3-.87.69s.3.6.74.6c.8,0,1.38-.37,1.38-1.02Z"/><path d="M122.73,75.94h.72v.81h-.72v-.81ZM122.77,77.53h.66v4.12h-.66v-4.12Z"/><path d="M124.68,77.53h.63v.59c.31-.46.7-.7,1.25-.7.9,0,1.46.67,1.46,1.7v2.53h-.66v-2.55c0-.63-.31-1.05-.95-1.05s-1.07.42-1.07,1.04v2.57h-.66v-4.12Z"/><path d="M130.31,79.53h-1.32v-.58h1.32v-1.34h.61v1.34h1.32v.58h-1.32v1.34h-.61v-1.34Z"/><path d="M133.29,76.21h3.58v.63h-2.88v1.63h2.45v.63h-2.45v1.91h2.92v.63h-3.62v-5.44Z"/><path d="M141.76,81.29c-.42.3-.93.46-1.47.46-1.45,0-2.63-1.15-2.63-2.82s1.18-2.81,2.63-2.81,2.63,1.12,2.63,2.81c0,.78-.26,1.45-.69,1.94l.74.79h-.87l-.34-.36ZM141.33,80.82l-.98-1.06h.87l.56.61c.26-.38.42-.86.42-1.45,0-1.37-.79-2.2-1.9-2.2s-1.9.86-1.9,2.2.82,2.21,1.9,2.21c.38,0,.74-.1,1.04-.31Z"/><path d="M242.98,69.44l-2.28-4.19h1.45l1.49,2.94,1.52-2.94h1.41l-2.28,4.19v2.61h-1.31v-2.61Z"/><path d="M246.93,69.48c0-1.56,1.2-2.71,2.63-2.71s2.63,1.15,2.63,2.71-1.2,2.69-2.63,2.69-2.63-1.13-2.63-2.69ZM250.88,69.49c0-1-.6-1.6-1.33-1.6s-1.33.6-1.33,1.6.6,1.56,1.33,1.56,1.33-.58,1.33-1.56Z"/><path d="M253.1,69.93v-3.03h1.26v3.03c0,.63.27,1.09.98,1.09s1.04-.46,1.04-1.09v-3.03h1.26v5.15h-1.22v-.81c-.24.61-.85.94-1.48.94-1.14,0-1.84-.84-1.84-2.25Z"/><path d="M258.88,66.9h1.26v.91c.36-.84,1.2-1.03,1.84-.97v1.26c-1.15-.17-1.78.35-1.78,1.29v2.66h-1.32v-5.15Z"/><path d="M265.77,66.9h1.22v.8c.28-.51.83-.93,1.64-.93,1.26,0,2.36,1.15,2.36,2.71s-1.06,2.69-2.36,2.69c-.77,0-1.34-.4-1.6-.86v2.83h-1.26v-7.24ZM269.69,69.49c0-1-.6-1.6-1.33-1.6s-1.33.6-1.33,1.6.6,1.56,1.33,1.56,1.33-.58,1.33-1.56Z"/><path d="M271.96,64.61h1.26v7.44h-1.26v-7.44Z"/><path d="M274.45,69.93v-3.03h1.26v3.03c0,.63.27,1.09.98,1.09s1.04-.46,1.04-1.09v-3.03h1.26v5.15h-1.22v-.81c-.24.61-.85.94-1.48.94-1.14,0-1.84-.84-1.84-2.25Z"/><path d="M280.03,72.53h1.37c.1.35.49.63,1.16.63.88,0,1.33-.53,1.33-1.5v-.43c-.26.46-.83.86-1.6.86-1.3,0-2.36-1.11-2.36-2.65s1.1-2.67,2.36-2.67c.81,0,1.36.42,1.64.93v-.8h1.22v4.74c0,1.76-.99,2.63-2.59,2.63s-2.44-.86-2.53-1.74ZM283.88,69.45c0-.99-.6-1.56-1.33-1.56s-1.33.57-1.33,1.56.6,1.52,1.33,1.52,1.33-.55,1.33-1.52Z"/><path d="M286.38,64.91h1.32v1.25h-1.32v-1.25ZM286.4,66.9h1.26v5.15h-1.26v-5.15Z"/><path d="M288.92,66.9h1.22v.81c.24-.61.85-.94,1.48-.94,1.14,0,1.84.84,1.84,2.25v3.03h-1.26v-3.03c0-.63-.27-1.09-.98-1.09s-1.04.46-1.04,1.09v3.03h-1.26v-5.15Z"/><path d="M241.84,79c0-1.38.53-2.78,1.31-3.62h.58c-.73.99-1.16,2.25-1.16,3.62s.43,2.64,1.16,3.62h-.58c-.78-.83-1.31-2.24-1.31-3.62Z"/><path d="M244.25,78.92c0-1.66,1.18-2.81,2.61-2.81,1.26,0,2.05.7,2.33,1.78h-.69c-.24-.7-.74-1.17-1.65-1.17-1.07,0-1.88.86-1.88,2.2s.82,2.21,1.9,2.21c.81,0,1.42-.48,1.64-1.21h.71c-.31,1.13-1.13,1.82-2.35,1.82-1.42,0-2.62-1.15-2.62-2.82Z"/><path d="M249.79,79.6c0-1.25.87-2.17,1.97-2.17s1.98.93,1.98,2.17-.86,2.14-1.98,2.14-1.97-.91-1.97-2.14ZM253.07,79.6c0-1.01-.61-1.58-1.3-1.58s-1.29.57-1.29,1.58.61,1.54,1.29,1.54,1.3-.55,1.3-1.54Z"/><path d="M254.7,77.53h.63v.55c.25-.4.65-.66,1.12-.66.51,0,.95.26,1.18.75.26-.46.65-.75,1.26-.75.84,0,1.38.54,1.38,1.55v2.67h-.66v-2.66c0-.65-.34-.94-.88-.94s-.91.37-.91.97v2.64h-.66v-2.66c0-.65-.34-.94-.87-.94s-.93.38-.93.97v2.64h-.66v-4.12Z"/><path d="M261.59,77.53h.63v.77c.26-.48.78-.87,1.42-.87,1.09,0,1.87.97,1.87,2.15s-.78,2.17-1.87,2.17c-.64,0-1.15-.35-1.4-.84v2.41h-.66v-5.79ZM264.85,79.6c0-1.01-.59-1.58-1.3-1.58s-1.3.57-1.3,1.58.59,1.54,1.3,1.54,1.3-.55,1.3-1.54Z"/><path d="M266.29,82.36c.26-.02.44-.15.44-.46v-.26h-.4v-.87h.82v1.13c0,.62-.46.84-.86.87v-.42Z"/><path d="M270.32,79.58c0-1.18.78-2.15,1.87-2.15.65,0,1.15.38,1.4.84v-2.57h.66v5.95h-.63v-.78c-.26.51-.78.87-1.42.87-1.09,0-1.87-.97-1.87-2.17ZM273.59,79.6c0-1.01-.59-1.58-1.3-1.58s-1.3.57-1.3,1.58.59,1.54,1.3,1.54,1.3-.55,1.3-1.54Z"/><path d="M275.47,75.94h.72v.81h-.72v-.81ZM275.5,77.53h.66v4.12h-.66v-4.12Z"/><path d="M277.1,80.44h.66c.1.4.49.71,1.12.71s1-.28,1-.63-.14-.54-1.09-.67c-.96-.14-1.55-.42-1.55-1.22,0-.58.44-1.2,1.54-1.2.92,0,1.52.47,1.62,1.21h-.66c-.1-.38-.47-.61-.96-.61-.59,0-.89.26-.89.58,0,.34.22.48,1.01.61.92.15,1.62.3,1.62,1.29,0,.81-.69,1.26-1.64,1.26s-1.67-.52-1.78-1.31Z"/><path d="M281.62,80.21v-2.07h-.6v-.61h.6v-1.18h.66v1.18h.94v.61h-.94v2.07c0,.68.32.9.81.9.11,0,.19-.02.19-.02v.6s-.1.02-.26.02c-.86,0-1.4-.5-1.4-1.51Z"/><path d="M286.37,80.78h.82v.87h-.82v-.87ZM288.29,80.78h.82v.87h-.82v-.87ZM290.2,80.78h.82v.87h-.82v-.87Z"/><path d="M292.81,79c0-1.37-.43-2.63-1.16-3.62h.58c.78.84,1.31,2.25,1.31,3.62s-.53,2.79-1.31,3.62h-.58c.73-.98,1.16-2.25,1.16-3.62Z"/><polygon class="cls-4" points="472.29 103.14 365.08 103.14 360.17 99.14 468.29 99.14 468.29 45.23 472.29 50.05 472.29 103.14"/><path d="M386,65.25h4.77v1.18h-3.48v1.48h2.94v1.19h-2.94v1.76h3.55v1.19h-4.84v-6.8Z"/><path d="M391.82,66.9h1.22v.81c.24-.61.85-.94,1.48-.94,1.14,0,1.84.84,1.84,2.25v3.03h-1.26v-3.03c0-.63-.27-1.09-.98-1.09s-1.04.46-1.04,1.09v3.03h-1.26v-5.15Z"/><path d="M397.27,69.48c0-1.56,1.2-2.71,2.62-2.71,1.21,0,2.14.74,2.4,1.86h-1.31c-.15-.47-.56-.74-1.09-.74-.72,0-1.31.6-1.31,1.6s.59,1.56,1.31,1.56c.59,0,.96-.3,1.1-.74h1.32c-.26,1.12-1.17,1.86-2.42,1.86-1.42,0-2.62-1.13-2.62-2.69Z"/><path d="M403.23,65.25h2.44c1.95,0,3.21,1.3,3.21,3.4s-1.29,3.4-3.21,3.4h-2.44v-6.8ZM405.67,70.86c1.59,0,1.88-1.4,1.88-2.22,0-1-.36-2.21-1.88-2.21h-1.15v4.43h1.15Z"/><path d="M410.85,69.88c.12.78.64,1.17,1.4,1.17.47,0,.83-.17,1.02-.48h1.35c-.3,1.03-1.19,1.6-2.37,1.6-1.51,0-2.71-1.13-2.71-2.69s1.16-2.71,2.61-2.71c1.63,0,2.76,1.35,2.58,3.11h-3.88ZM410.88,68.98h2.53c-.13-.71-.6-1.11-1.26-1.11-.6,0-1.11.41-1.27,1.11Z"/><path d="M415.38,69.48c0-1.56,1.2-2.71,2.62-2.71,1.21,0,2.14.74,2.4,1.86h-1.31c-.15-.47-.56-.74-1.09-.74-.72,0-1.31.6-1.31,1.6s.59,1.56,1.31,1.56c.59,0,.96-.3,1.1-.74h1.32c-.26,1.12-1.17,1.86-2.42,1.86-1.42,0-2.62-1.13-2.62-2.69Z"/><path d="M424.34,65.25h2.64c1.57,0,2.44.87,2.44,2.2s-.92,2.15-2.41,2.15h-1.37v2.45h-1.3v-6.8ZM426.97,68.45c.75,0,1.16-.31,1.16-1s-.41-1.04-1.16-1.04h-1.33v2.04h1.33Z"/><path d="M430.01,69.48c0-1.56,1.2-2.71,2.63-2.71s2.63,1.15,2.63,2.71-1.2,2.69-2.63,2.69-2.63-1.13-2.63-2.69ZM433.97,69.49c0-1-.6-1.6-1.33-1.6s-1.33.6-1.33,1.6.6,1.56,1.33,1.56,1.33-.58,1.33-1.56Z"/><path d="M435.83,70.46h1.26c.1.44.52.66,1.17.66.6,0,1.01-.21,1.01-.54,0-.39-.34-.44-1.24-.6-.96-.17-2.06-.33-2.06-1.61,0-.86.71-1.6,2.14-1.6,1.26,0,2.05.61,2.19,1.54h-1.26c-.08-.24-.35-.5-.98-.5-.58,0-.87.21-.87.49,0,.34.34.41,1.09.54.95.17,2.21.3,2.21,1.68,0,1-.85,1.65-2.23,1.65-1.5,0-2.38-.74-2.43-1.71Z"/><path d="M441.64,70.05v-2.09h-.67v-1.06h.67v-1.45h1.26v1.45h1.12v1.06h-1.12v2.1c0,.66.27.96.81.96.12,0,.25-.01.37-.04v1.09c-.15.03-.34.06-.51.06-1.25,0-1.93-.7-1.93-2.08Z"/><path d="M406.49,79c0-1.38.53-2.78,1.31-3.62h.58c-.73.99-1.16,2.25-1.16,3.62s.43,2.64,1.16,3.62h-.58c-.78-.83-1.31-2.24-1.31-3.62Z"/><path d="M409.25,76.21h.7v5.44h-.7v-5.44Z"/><path d="M411.29,77.53h.63v.59c.31-.46.7-.7,1.25-.7.9,0,1.46.67,1.46,1.7v2.53h-.66v-2.55c0-.63-.31-1.05-.95-1.05s-1.07.42-1.07,1.04v2.57h-.66v-4.12Z"/><path d="M415.35,77.53h.7l.99,2.8c.1.27.17.66.17.66,0,0,.07-.38.17-.66l.99-2.8h.69l-1.5,4.12h-.7l-1.5-4.12Z"/><path d="M419.52,79.59c0-1.25.89-2.17,2-2.17,1.03,0,1.96.82,1.92,2.37h-3.24c.07.91.69,1.36,1.34,1.36.57,0,.94-.26,1.1-.66h.7c-.19.72-.87,1.25-1.8,1.25-1.14,0-2.02-.88-2.02-2.15ZM422.7,79.23c-.09-.83-.59-1.21-1.18-1.21-.55,0-1.14.35-1.29,1.21h2.48Z"/><path d="M424.37,77.53h.63v.7c.32-.58.9-.79,1.36-.74v.66c-.72-.06-1.33.28-1.33,1.11v2.38h-.66v-4.12Z"/><path d="M426.93,80.44h.66c.1.4.49.71,1.12.71s1-.28,1-.63-.14-.54-1.09-.67c-.96-.14-1.55-.42-1.55-1.22,0-.58.44-1.2,1.54-1.2.92,0,1.52.47,1.62,1.21h-.66c-.1-.38-.47-.61-.96-.61-.59,0-.89.26-.89.58,0,.34.22.48,1.01.61.92.15,1.62.3,1.62,1.29,0,.81-.69,1.26-1.64,1.26s-1.67-.52-1.78-1.31Z"/><path d="M431.27,75.94h.72v.81h-.72v-.81ZM431.3,77.53h.66v4.12h-.66v-4.12Z"/><path d="M432.93,79.6c0-1.25.87-2.17,1.97-2.17s1.97.93,1.97,2.17-.86,2.14-1.97,2.14-1.97-.91-1.97-2.14ZM436.2,79.6c0-1.01-.61-1.58-1.3-1.58s-1.29.57-1.29,1.58.61,1.54,1.29,1.54,1.3-.55,1.3-1.54Z"/><path d="M437.84,77.53h.63v.59c.31-.46.7-.7,1.25-.7.9,0,1.46.67,1.46,1.7v2.53h-.66v-2.55c0-.63-.31-1.05-.95-1.05s-1.07.42-1.07,1.04v2.57h-.66v-4.12Z"/><path d="M443.09,79c0-1.37-.43-2.63-1.16-3.62h.58c.78.84,1.31,2.25,1.31,3.62s-.53,2.79-1.31,3.62h-.58c.73-.98,1.16-2.25,1.16-3.62Z"/><line class="cls-1" x1="114.67" y1="101.14" x2="114.67" y2="107.14"/><polyline class="cls-1" points="114.67 115.34 114.67 121.34 120.67 121.34"/><line class="cls-2" x1="132.21" y1="121.34" x2="403.46" y2="121.34"/><polyline class="cls-1" points="409.23 121.34 415.23 121.34 415.23 115.34"/><line class="cls-1" x1="415.23" y1="107.14" x2="415.23" y2="101.14"/><path class="cls-6" d="M210.11,140.92h.66c.02.74.54,1.17,1.34,1.17.9,0,1.3-.41,1.3-.94,0-.44-.26-.74-1.18-1.1-1.06-.41-1.48-.81-1.48-1.57,0-.95.79-1.44,1.81-1.44,1.13,0,1.71.67,1.73,1.56h-.66c-.02-.57-.42-.98-1.13-.98-.76,0-1.1.34-1.1.82,0,.41.18.63,1.06,1,1.05.43,1.58.78,1.58,1.69,0,.99-.84,1.54-1.96,1.54-1.28,0-1.98-.75-1.98-1.77Z"/><path class="cls-6" d="M215.76,136.65h.63l-.41,2.37c.27-.39.7-.64,1.18-.64.87,0,1.39.71,1.21,1.76l-.42,2.46h-.63l.44-2.52c.12-.69-.15-1.1-.78-1.1-.57,0-1.04.38-1.14,1l-.46,2.62h-.64l1.03-5.95Z"/><path class="cls-6" d="M219.22,140.77c0-1.32.88-2.4,1.95-2.4.66,0,1.1.44,1.3.94l.14-.84h.61l-.55,3.16c-.06.37-.02.8,0,.96h-.6c-.03-.11-.06-.36-.06-.66-.26.46-.77.76-1.26.76-.87,0-1.54-.8-1.54-1.92ZM222.27,140.29c0-.82-.44-1.36-1.07-1.36-.81,0-1.32.81-1.32,1.85,0,.92.4,1.34,1.02,1.34.7,0,1.38-.7,1.38-1.83Z"/><path class="cls-6" d="M224.44,138.48h.61l-.13.71c.38-.65,1.02-.81,1.44-.75l-.12.66c-.74-.07-1.32.28-1.46,1.11l-.42,2.38h-.64l.72-4.12Z"/><path class="cls-6" d="M226.59,140.72c0-1.28.87-2.35,2.09-2.35,1.12,0,1.77.98,1.58,2.36h-3.01c0,.9.49,1.39,1.11,1.39.5,0,.86-.23,1.1-.68h.69c-.27.74-.93,1.25-1.81,1.25-1,0-1.74-.81-1.74-1.97ZM227.3,140.18h2.33c0-.82-.4-1.23-.99-1.23-.68,0-1.18.51-1.34,1.23Z"/><path class="cls-6" d="M230.95,140.72c.02-1.28.87-2.35,1.99-2.35.74,0,1.14.42,1.36.87l.45-2.6h.63l-1.02,5.95h-.62l.13-.72c-.29.52-.83.82-1.36.82-.94,0-1.58-.81-1.56-1.97ZM234.12,140.29c0-.82-.46-1.36-1.13-1.36-.86,0-1.38.8-1.39,1.8-.02.93.37,1.39,1.05,1.39.79,0,1.46-.7,1.47-1.83Z"/><path class="cls-6" d="M238.52,138.48h.61l-.12.66c.3-.48.81-.76,1.33-.76.95,0,1.61.85,1.58,1.99-.02,1.29-.87,2.33-1.99,2.33-.73,0-1.15-.39-1.36-.9l-.42,2.48h-.64l1.01-5.79ZM241.27,140.36c.02-.93-.38-1.42-1.06-1.42-.79,0-1.46.71-1.47,1.82,0,.82.44,1.37,1.13,1.37.86,0,1.38-.76,1.4-1.77Z"/><path class="cls-6" d="M242.57,140.77c0-1.32.88-2.4,1.95-2.4.66,0,1.1.44,1.29.94l.14-.84h.61l-.55,3.16c-.06.37-.02.8,0,.96h-.6c-.03-.11-.06-.36-.06-.66-.26.46-.77.76-1.26.76-.87,0-1.54-.8-1.54-1.92ZM245.62,140.29c0-.82-.44-1.36-1.07-1.36-.81,0-1.32.81-1.32,1.85,0,.92.4,1.34,1.02,1.34.7,0,1.38-.7,1.38-1.83Z"/><path class="cls-6" d="M247.79,138.48h.61l-.13.71c.38-.65,1.02-.81,1.44-.75l-.12.66c-.74-.07-1.32.28-1.46,1.11l-.42,2.38h-.64l.72-4.12Z"/><path class="cls-6" d="M249.95,140.77c0-1.32.88-2.4,1.95-2.4.66,0,1.1.44,1.29.94l.14-.84h.61l-.55,3.16c-.06.37-.02.8,0,.96h-.6c-.03-.11-.06-.36-.06-.66-.26.46-.77.76-1.26.76-.87,0-1.54-.8-1.54-1.92ZM252.99,140.29c0-.82-.44-1.36-1.07-1.36-.81,0-1.32.81-1.32,1.85,0,.92.4,1.34,1.02,1.34.7,0,1.38-.7,1.38-1.83Z"/><path class="cls-6" d="M255.17,138.48h.61l-.1.55c.22-.36.69-.66,1.12-.66.51,0,.89.27,1.04.75.34-.46.73-.75,1.3-.75.82,0,1.29.64,1.11,1.64l-.45,2.58h-.64l.46-2.62c.11-.65-.14-1-.66-1s-.94.34-1.05.94l-.46,2.68h-.64l.46-2.62c.11-.65-.14-1-.65-1s-.96.34-1.06.94l-.46,2.68h-.64l.72-4.12Z"/><path class="cls-6" d="M261.16,140.72c0-1.28.87-2.35,2.09-2.35,1.12,0,1.77.98,1.58,2.36h-3.01c0,.9.49,1.39,1.11,1.39.5,0,.86-.23,1.1-.68h.69c-.27.74-.93,1.25-1.81,1.25-1,0-1.74-.81-1.74-1.97ZM261.87,140.18h2.33c0-.82-.4-1.23-.99-1.23-.68,0-1.18.51-1.34,1.23Z"/><path class="cls-6" d="M265.75,138.48h.57l.21-1.17h.62l-.21,1.17h.9l-.1.61h-.9l-.37,2.15c-.11.66.1.84.63.84.11,0,.19-.02.19-.02l-.1.58s-.11.02-.25.02c-.77,0-1.26-.5-1.1-1.46l.37-2.12h-.58l.11-.61Z"/><path class="cls-6" d="M268.12,140.72c0-1.28.87-2.35,2.09-2.35,1.12,0,1.77.98,1.58,2.36h-3.01c0,.9.49,1.39,1.11,1.39.5,0,.86-.23,1.1-.68h.69c-.27.74-.93,1.25-1.81,1.25-1,0-1.74-.81-1.74-1.97ZM268.83,140.18h2.33c0-.82-.4-1.23-.99-1.23-.68,0-1.18.51-1.34,1.23Z"/><path class="cls-6" d="M273.13,138.48h.61l-.13.71c.38-.65,1.02-.81,1.44-.75l-.12.66c-.74-.07-1.32.28-1.46,1.11l-.42,2.38h-.64l.72-4.12Z"/><path class="cls-6" d="M275.07,141.37h.64c.03.41.39.75,1.05.75.62,0,.95-.3.95-.67,0-.28-.08-.46-.9-.69-.86-.24-1.26-.54-1.25-1.23,0-.57.46-1.16,1.5-1.16.9,0,1.48.49,1.54,1.21h-.65c-.08-.36-.34-.62-.91-.62-.54,0-.84.21-.84.54,0,.31.12.46.84.67.8.24,1.31.47,1.29,1.28,0,.84-.68,1.24-1.61,1.24-.98,0-1.63-.53-1.66-1.32Z"/><path class="cls-6" d="M281.67,140.5c0-1.63.75-3.21,1.97-4.17h.6c-1.27,1.18-1.88,2.65-1.88,4.28,0,1.16.26,2.13.64,2.97h-.49c-.49-.78-.85-1.79-.85-3.07Z"/><path class="cls-6" d="M284.08,138.48h.65l.46,2.8c.05.28.06.64.06.66,0-.02.14-.39.27-.66l1.43-2.8h.69l-2.16,4.12h-.67l-.73-4.12Z"/><path class="cls-6" d="M288.39,138.48h.63l-.71,4.12h-.64l.72-4.12ZM288.63,136.89h.7l-.14.81h-.7l.14-.81Z"/><path class="cls-6" d="M289.6,140.77c0-1.32.88-2.4,1.95-2.4.66,0,1.1.44,1.3.94l.14-.84h.61l-.55,3.16c-.06.37-.02.8,0,.96h-.6c-.03-.11-.06-.36-.06-.66-.26.46-.77.76-1.26.76-.87,0-1.54-.8-1.54-1.92ZM292.65,140.29c0-.82-.44-1.36-1.07-1.36-.81,0-1.32.81-1.32,1.85,0,.92.4,1.34,1.02,1.34.7,0,1.38-.7,1.38-1.83Z"/><path class="cls-6" d="M296.13,143.04h.66c.1.49.5.74,1.05.74.95,0,1.26-.59,1.4-1.39l.06-.38c-.29.45-.78.7-1.31.7-.94,0-1.58-.81-1.56-1.97.02-1.28.87-2.35,1.99-2.35.74,0,1.18.42,1.38.93l.14-.82h.62l-.69,3.95c-.24,1.36-.86,1.93-2.02,1.93-.98,0-1.65-.59-1.71-1.32ZM299.61,140.29c0-.82-.46-1.36-1.13-1.36-.86,0-1.38.8-1.4,1.8-.02.93.38,1.39,1.06,1.39.79,0,1.46-.7,1.47-1.83Z"/><path class="cls-6" d="M301.76,138.48h.61l-.1.55c.22-.36.69-.66,1.12-.66.51,0,.89.27,1.04.75.34-.46.73-.75,1.3-.75.82,0,1.29.64,1.11,1.64l-.45,2.58h-.64l.46-2.62c.11-.65-.14-1-.66-1s-.94.34-1.05.94l-.46,2.68h-.64l.46-2.62c.11-.65-.14-1-.65-1s-.96.34-1.06.94l-.46,2.68h-.64l.72-4.12Z"/><path class="cls-6" d="M307.75,140.72c0-1.28.87-2.35,2.09-2.35,1.12,0,1.78.98,1.58,2.36h-3.01c0,.9.49,1.39,1.11,1.39.5,0,.86-.23,1.09-.68h.69c-.27.74-.93,1.25-1.81,1.25-1,0-1.74-.81-1.74-1.97ZM308.46,140.18h2.33c0-.82-.4-1.23-.99-1.23-.68,0-1.18.51-1.34,1.23Z"/><path class="cls-6" d="M312.75,138.48h.61l-.1.55c.22-.36.69-.66,1.12-.66.51,0,.89.27,1.04.75.33-.46.73-.75,1.29-.75.82,0,1.29.64,1.11,1.64l-.45,2.58h-.64l.46-2.62c.11-.65-.14-1-.66-1s-.94.34-1.05.94l-.46,2.68h-.64l.46-2.62c.11-.65-.14-1-.65-1s-.96.34-1.06.94l-.46,2.68h-.64l.72-4.12Z"/><path class="cls-6" d="M320.55,139.4c0,1.63-.75,3.21-1.98,4.17h-.61c1.27-1.18,1.88-2.65,1.88-4.28,0-1.16-.26-2.14-.64-2.97h.5c.49.78.85,1.79.85,3.07Z"/><polygon class="cls-4" points="194.72 74.43 191.96 71.92 191.96 73.02 180.93 73.02 183.56 75.18 194.72 75.18 194.72 74.43"/><polygon class="cls-4" points="201.08 71.74 201.08 73.02 189.91 78.14 192.12 80.34 203.28 75.22 203.28 73.95 201.08 71.74"/><polygon class="cls-4" points="198.23 72.97 199.53 72.38 189.91 67.99 192.12 70.19 198.23 72.97"/><polygon class="cls-4" points="342.7 74.43 339.95 71.92 339.95 73.02 328.92 73.02 331.54 75.18 342.7 75.18 342.7 74.43"/><polygon class="cls-4" points="349.06 71.74 349.06 73.02 337.89 78.14 340.1 80.34 351.26 75.22 351.26 73.95 349.06 71.74"/><polygon class="cls-4" points="346.21 72.97 347.51 72.38 337.89 67.99 340.1 70.19 346.21 72.97"/><path class="cls-5" d="M18.43,17.58h11.45v2.83h-8.35v3.55h7.06v2.86h-7.06v4.22h8.52v2.86h-11.62v-16.32Z"/><path class="cls-5" d="M31.56,21.54h2.93v1.94c.58-1.46,2.04-2.26,3.55-2.26,2.74,0,4.42,2.02,4.42,5.4v7.27h-3.02v-7.27c0-1.51-.65-2.62-2.35-2.62s-2.5,1.1-2.5,2.62v7.27h-3.02v-12.36Z"/><path class="cls-5" d="M43.77,27.73c0-3.74,2.88-6.5,6.29-6.5,2.9,0,5.14,1.78,5.76,4.46h-3.14c-.36-1.13-1.34-1.78-2.62-1.78-1.73,0-3.14,1.44-3.14,3.84s1.42,3.74,3.14,3.74c1.42,0,2.3-.72,2.64-1.78h3.17c-.62,2.69-2.81,4.46-5.81,4.46-3.41,0-6.29-2.71-6.29-6.46Z"/><path class="cls-5" d="M57.3,17.58h5.86c4.68,0,7.7,3.12,7.7,8.16s-3.1,8.16-7.7,8.16h-5.86v-16.32ZM63.16,31.04c3.82,0,4.51-3.36,4.51-5.33,0-2.4-.86-5.3-4.51-5.3h-2.76v10.63h2.76Z"/><path class="cls-5" d="M74.83,28.69c.29,1.87,1.54,2.81,3.36,2.81,1.13,0,1.99-.41,2.45-1.15h3.24c-.72,2.47-2.86,3.84-5.69,3.84-3.62,0-6.5-2.71-6.5-6.46s2.78-6.5,6.26-6.5c3.91,0,6.62,3.24,6.19,7.46h-9.31ZM74.9,26.53h6.07c-.31-1.7-1.44-2.66-3.02-2.66-1.44,0-2.66.98-3.05,2.66Z"/><path class="cls-5" d="M84.91,27.73c0-3.74,2.88-6.5,6.29-6.5,2.9,0,5.14,1.78,5.76,4.46h-3.14c-.36-1.13-1.34-1.78-2.62-1.78-1.73,0-3.14,1.44-3.14,3.84s1.42,3.74,3.14,3.74c1.42,0,2.3-.72,2.64-1.78h3.17c-.62,2.69-2.81,4.46-5.81,4.46-3.41,0-6.29-2.71-6.29-6.46Z"/><path class="cls-4" d="M443.61,162.53h.65c.03.64.54,1.06,1.32,1.06s1.18-.35,1.18-.86c0-.47-.22-.74-1.28-.96-1.13-.24-1.68-.6-1.68-1.46s.68-1.33,1.65-1.33c1.1,0,1.73.57,1.82,1.43h-.63c-.05-.49-.42-.87-1.18-.87-.69,0-1.03.28-1.03.75,0,.43.21.65,1.21.88,1.13.26,1.75.56,1.75,1.57,0,.93-.76,1.43-1.8,1.43-1.15,0-1.93-.72-1.96-1.62Z"/><path class="cls-4" d="M448.35,162.74v-1.9h-.55v-.56h.55v-1.08h.6v1.08h.86v.56h-.86v1.9c0,.63.29.83.74.83.1,0,.18-.01.18-.01v.55s-.1.02-.24.02c-.79,0-1.29-.46-1.29-1.39Z"/><path class="cls-4" d="M450.49,162.6v-2.32h.6v2.35c0,.58.29.96.88.96s.99-.38.99-.95v-2.36h.6v3.79h-.58v-.54c-.29.42-.65.63-1.15.63-.82,0-1.34-.61-1.34-1.55Z"/><path class="cls-4" d="M454.33,162.16c0-1.09.72-1.98,1.72-1.98.6,0,1.06.35,1.29.77v-2.36h.6v5.47h-.58v-.71c-.23.47-.72.8-1.31.8-1,0-1.72-.89-1.72-1.99ZM457.34,162.18c0-.93-.54-1.45-1.19-1.45s-1.2.52-1.2,1.45.54,1.42,1.2,1.42,1.19-.51,1.19-1.42Z"/><path class="cls-4" d="M458.92,158.81h.66v.74h-.66v-.74ZM458.95,160.27h.6v3.79h-.6v-3.79Z"/><path class="cls-4" d="M460.32,162.18c0-1.15.8-2,1.82-2s1.82.85,1.82,2-.79,1.97-1.82,1.97-1.82-.84-1.82-1.97ZM463.33,162.18c0-.93-.56-1.45-1.2-1.45s-1.19.52-1.19,1.45.56,1.42,1.19,1.42,1.2-.51,1.2-1.42Z"/><path class="cls-8" d="M464.46,162.44h.96c.06.52.46.86,1.19.86.6,0,1.05-.17,1.05-.63s-.52-.58-1.38-.76c-.79-.17-1.65-.43-1.65-1.5,0-.85.7-1.46,1.82-1.46,1.34,0,1.9.82,1.96,1.57h-.95c-.06-.46-.4-.71-1.01-.71-.52,0-.9.19-.9.57,0,.41.36.51,1.16.67.86.18,1.88.41,1.88,1.61,0,.95-.72,1.51-1.92,1.51s-2.12-.61-2.21-1.71Z"/><path class="cls-8" d="M469.29,158.59h.93v2.23c.18-.39.6-.64,1.06-.64.84,0,1.35.62,1.35,1.66v2.23h-.93v-2.23c0-.46-.2-.8-.72-.8s-.76.34-.76.8v2.23h-.93v-5.47Z"/><path class="cls-8" d="M473.18,162.17c0-1.15.88-1.99,1.93-1.99s1.94.85,1.94,1.99-.88,1.98-1.94,1.98-1.93-.83-1.93-1.98ZM476.1,162.18c0-.74-.44-1.18-.98-1.18s-.98.44-.98,1.18.44,1.15.98,1.15.98-.43.98-1.15Z"/><path class="cls-8" d="M477.61,162.5v-2.23h.93v2.23c0,.46.2.8.72.8s.76-.34.76-.8v-2.23h.93v3.79h-.9v-.6c-.18.45-.62.69-1.09.69-.84,0-1.35-.62-1.35-1.66Z"/><path class="cls-8" d="M481.91,162.59v-1.54h-.49v-.78h.49v-1.07h.93v1.07h.82v.78h-.82v1.54c0,.49.2.71.6.71.09,0,.18,0,.27-.03v.8c-.11.02-.25.04-.38.04-.92,0-1.42-.51-1.42-1.53Z"/><path class="cls-3" d="M483.99,162.44h.96c.06.52.46.86,1.19.86.6,0,1.05-.17,1.05-.63s-.52-.58-1.38-.76c-.79-.17-1.65-.43-1.65-1.5,0-.85.7-1.46,1.82-1.46,1.34,0,1.9.82,1.96,1.57h-.95c-.06-.46-.41-.71-1.01-.71-.52,0-.91.19-.91.57,0,.41.36.51,1.16.67.86.18,1.88.41,1.88,1.61,0,.95-.72,1.51-1.92,1.51s-2.12-.61-2.21-1.71Z"/><path class="cls-3" d="M488.82,158.59h.93v2.23c.18-.39.6-.64,1.06-.64.84,0,1.35.62,1.35,1.66v2.23h-.93v-2.23c0-.46-.2-.8-.72-.8s-.76.34-.76.8v2.23h-.93v-5.47Z"/><path class="cls-3" d="M492.72,162.17c0-1.15.88-1.99,1.93-1.99s1.93.85,1.93,1.99-.88,1.98-1.93,1.98-1.93-.83-1.93-1.98ZM495.63,162.18c0-.74-.44-1.18-.98-1.18s-.98.44-.98,1.18.44,1.15.98,1.15.98-.43.98-1.15Z"/><path class="cls-3" d="M497.14,162.5v-2.23h.93v2.23c0,.46.2.8.72.8s.76-.34.76-.8v-2.23h.93v3.79h-.9v-.6c-.18.45-.62.69-1.09.69-.84,0-1.35-.62-1.35-1.66Z"/><path class="cls-3" d="M501.44,162.59v-1.54h-.49v-.78h.49v-1.07h.93v1.07h.82v.78h-.82v1.54c0,.49.2.71.6.71.09,0,.18,0,.27-.03v.8c-.11.02-.25.04-.38.04-.92,0-1.42-.51-1.42-1.53Z"/><path class="cls-5" d="M503.53,162.44h.96c.06.52.46.86,1.19.86.6,0,1.05-.17,1.05-.63s-.52-.58-1.38-.76c-.79-.17-1.65-.43-1.65-1.5,0-.85.7-1.46,1.82-1.46,1.34,0,1.9.82,1.96,1.57h-.95c-.06-.46-.41-.71-1.01-.71-.52,0-.91.19-.91.57,0,.41.36.51,1.16.67.86.18,1.88.41,1.88,1.61,0,.95-.72,1.51-1.92,1.51s-2.12-.61-2.21-1.71Z"/><path class="cls-5" d="M508.35,158.59h.93v2.23c.18-.39.6-.64,1.06-.64.84,0,1.35.62,1.35,1.66v2.23h-.93v-2.23c0-.46-.2-.8-.72-.8s-.77.34-.77.8v2.23h-.93v-5.47Z"/><path class="cls-5" d="M512.25,162.17c0-1.15.88-1.99,1.93-1.99s1.93.85,1.93,1.99-.88,1.98-1.93,1.98-1.93-.83-1.93-1.98ZM515.16,162.18c0-.74-.44-1.18-.98-1.18s-.98.44-.98,1.18.44,1.15.98,1.15.98-.43.98-1.15Z"/><path class="cls-5" d="M516.68,162.5v-2.23h.93v2.23c0,.46.2.8.72.8s.77-.34.77-.8v-2.23h.93v3.79h-.9v-.6c-.18.45-.62.69-1.09.69-.84,0-1.35-.62-1.35-1.66Z"/><path class="cls-5" d="M520.97,162.59v-1.54h-.49v-.78h.49v-1.07h.93v1.07h.82v.78h-.82v1.54c0,.49.2.71.6.71.09,0,.18,0,.27-.03v.8c-.11.02-.25.04-.38.04-.92,0-1.42-.51-1.42-1.53Z"/></svg>