<?xml version="1.0" encoding="UTF-8"?>
<svg id="Layer_1" xmlns="http://www.w3.org/2000/svg" version="1.1" viewBox="0 0 542.4 179">
  <!-- Generator: Adobe Illustrator 29.5.1, SVG Export Plug-In . SVG Version: 2.1.0 Build 141)  -->
  <defs>
    <style>
      .st0 {
        fill: #bbbbba;
      }

      .st1 {
        fill: #777;
      }

      .st2 {
        fill: #565555;
      }

      .st3 {
        isolation: isolate;
      }

      .st4 {
        stroke-dasharray: 11.5 11.5;
      }

      .st4, .st5 {
        fill: none;
        stroke: #bbbbba;
        stroke-miterlimit: 10;
      }

      .st6 {
        fill: #eee;
      }

      .st7 {
        fill: #999;
      }
    </style>
  </defs>
  <rect class="st6" y="0" width="542.4" height="179"/>
  <g class="st3">
    <g class="st3">
      <path d="M32.8,73.2h1v5.4h-1v-5.4Z"/>
      <path d="M35.5,73.2h1.2l2.3,3.9v-3.9h1v5.4h-1.2l-2.3-3.9v3.9h-1v-5.4Z"/>
      <path d="M41.5,73.2h2.1c1.3,0,2,.7,2,1.8s-.7,1.7-1.9,1.7h-1.1v2h-1v-5.4ZM43.6,75.7c.6,0,.9-.2.9-.8s-.3-.8-.9-.8h-1.1v1.6h1.1Z"/>
      <path d="M46.8,76.5v-3.3h1v3.4c0,.8.4,1.2,1.1,1.2s1.1-.4,1.1-1.2v-3.4h1v3.3c0,1.4-.7,2.2-2.1,2.2s-2.1-.8-2.1-2.2Z"/>
      <path d="M53.7,74.1h-1.5v-.9h4.1v.9h-1.5v4.5h-1v-4.5Z"/>
    </g>
  </g>
  <g class="st3">
    <g class="st3">
      <path d="M480.1,75.9c0-1.6,1.1-2.8,2.7-2.8s2.7,1.2,2.7,2.8-1.1,2.8-2.7,2.8-2.7-1.2-2.7-2.8ZM484.4,75.9c0-1.2-.7-1.9-1.6-1.9s-1.6.7-1.6,1.9.7,1.9,1.6,1.9,1.6-.7,1.6-1.9Z"/>
      <path d="M486.8,76.5v-3.3h1v3.4c0,.8.4,1.2,1.1,1.2s1.1-.4,1.1-1.2v-3.4h1v3.3c0,1.4-.7,2.2-2.1,2.2s-2.1-.8-2.1-2.2Z"/>
      <path d="M493.6,74.1h-1.5v-.9h4.1v.9h-1.5v4.5h-1v-4.5Z"/>
      <path d="M497.4,73.2h2.1c1.3,0,2,.7,2,1.8s-.7,1.7-1.9,1.7h-1.1v2h-1v-5.4ZM499.5,75.7c.6,0,.9-.2.9-.8s-.3-.8-.9-.8h-1.1v1.6h1.1Z"/>
      <path d="M502.7,76.5v-3.3h1v3.4c0,.8.4,1.2,1.1,1.2s1.1-.4,1.1-1.2v-3.4h1v3.3c0,1.4-.7,2.2-2.1,2.2s-2.1-.8-2.1-2.2Z"/>
      <path d="M509.6,74.1h-1.5v-.9h4.1v.9h-1.5v4.5h-1v-4.5Z"/>
    </g>
  </g>
  <polygon class="st0" points="171.7 103.1 59.6 103.1 64.7 99.1 167.7 99.1 167.7 51.3 171.7 45.2 171.7 103.1"/>
  <polygon class="st0" points="322 103.1 209.9 103.1 215.3 99.1 318 99.1 318 50.9 322 45.2 322 103.1"/>
  <g class="st3">
    <g class="st3">
      <path d="M94.9,65.3h4.8v1.2h-3.5v1.5h2.9v1.2h-2.9v1.8h3.5v1.2h-4.8v-6.8Z"/>
      <path d="M100.7,66.9h1.2v.8c.2-.6.8-.9,1.5-.9,1.1,0,1.8.8,1.8,2.2v3h-1.3v-3c0-.6-.3-1.1-1-1.1s-1,.5-1,1.1v3h-1.3v-5.1Z"/>
      <path d="M106.2,69.5c0-1.6,1.2-2.7,2.6-2.7s2.1.7,2.4,1.9h-1.3c-.1-.5-.6-.7-1.1-.7s-1.3.6-1.3,1.6.6,1.6,1.3,1.6,1-.3,1.1-.7h1.3c-.3,1.1-1.2,1.9-2.4,1.9s-2.6-1.1-2.6-2.7Z"/>
      <path d="M112.1,65.3h2.4c1.9,0,3.2,1.3,3.2,3.4s-1.3,3.4-3.2,3.4h-2.4v-6.8ZM114.6,70.9c1.6,0,1.9-1.4,1.9-2.2s-.4-2.2-1.9-2.2h-1.1v4.4h1.1Z"/>
      <path d="M119.7,69.9c.1.8.6,1.2,1.4,1.2s.8-.2,1-.5h1.3c-.3,1-1.2,1.6-2.4,1.6s-2.7-1.1-2.7-2.7,1.2-2.7,2.6-2.7,2.8,1.3,2.6,3.1h-3.9ZM119.8,69h2.5c-.1-.7-.6-1.1-1.3-1.1s-1.1.4-1.3,1.1Z"/>
      <path d="M124.3,69.5c0-1.6,1.2-2.7,2.6-2.7s2.1.7,2.4,1.9h-1.3c-.1-.5-.6-.7-1.1-.7s-1.3.6-1.3,1.6.6,1.6,1.3,1.6,1-.3,1.1-.7h1.3c-.3,1.1-1.2,1.9-2.4,1.9s-2.6-1.1-2.6-2.7Z"/>
      <path d="M133.2,65.3h2.6c1.6,0,2.4.9,2.4,2.2s-.9,2.1-2.4,2.1h-1.4v2.4h-1.3v-6.8ZM135.9,68.5c.7,0,1.2-.3,1.2-1s-.4-1-1.2-1h-1.3v2h1.3Z"/>
      <path d="M139.2,66.9h1.3v.9c.4-.8,1.2-1,1.8-1v1.3c-1.1-.2-1.8.4-1.8,1.3v2.7h-1.3v-5.1Z"/>
      <path d="M144.1,69.9c.1.8.6,1.2,1.4,1.2s.8-.2,1-.5h1.3c-.3,1-1.2,1.6-2.4,1.6s-2.7-1.1-2.7-2.7,1.2-2.7,2.6-2.7,2.8,1.3,2.6,3.1h-3.9ZM144.1,69h2.5c-.1-.7-.6-1.1-1.3-1.1s-1.1.4-1.3,1.1Z"/>
    </g>
    <g class="st3">
      <path d="M109.5,80.6c0-2.1,1.5-3.5,3.2-3.5s2.5.7,2.9,2.2h-.9c-.3-1-1.1-1.4-2-1.4-1.4,0-2.3,1.1-2.3,2.7s1,2.8,2.3,2.8,2.2-.9,2.3-2h-1.9v-.8h2.7v3.5h-.8v-1.1c-.4.7-1.1,1.2-2.3,1.2-1.8,0-3.2-1.4-3.2-3.5Z"/>
      <path d="M116.8,82.7c0-1,.8-1.4,1.9-1.6,1-.2,1.6-.3,1.6-.8s-.4-.8-1.1-.8-1.1.3-1.2.9h-.9c0-1,.9-1.6,2.1-1.6s1.9.6,1.9,1.6v2.7c0,.4.1.8.2,1h-.8c0-.2-.2-.4-.2-.7-.3.5-.9.8-1.8.8s-1.7-.4-1.7-1.4ZM120.3,82.2v-.9c-.2.2-.6.4-1.6.5-.8.2-1.1.4-1.1.9s.4.8.9.8c1,0,1.7-.5,1.7-1.3Z"/>
      <path d="M122.6,76.9h.9v1h-.9v-1ZM122.7,78.9h.8v5.1h-.8v-5.1Z"/>
      <path d="M125.1,78.9h.8v.7c.4-.6.9-.9,1.6-.9,1.1,0,1.8.8,1.8,2.1v3.2h-.8v-3.2c0-.8-.4-1.3-1.2-1.3s-1.3.5-1.3,1.3v3.2h-.8v-5.1Z"/>
      <path d="M132.1,81.4h-1.6v-.7h1.6v-1.7h.8v1.7h1.6v.7h-1.6v1.7h-.8v-1.7Z"/>
      <path d="M135.8,77.3h4.5v.8h-3.6v2h3.1v.8h-3.1v2.4h3.6v.8h-4.5v-6.8Z"/>
      <path d="M146.4,83.6c-.5.4-1.2.6-1.8.6-1.8,0-3.3-1.4-3.3-3.5s1.5-3.5,3.3-3.5,3.3,1.4,3.3,3.5-.3,1.8-.9,2.4l.9,1h-1.1l-.4-.5ZM145.9,83l-1.2-1.3h1.1l.7.8c.3-.5.5-1.1.5-1.8,0-1.7-1-2.7-2.4-2.7s-2.4,1.1-2.4,2.7,1,2.8,2.4,2.8.9-.1,1.3-.4Z"/>
    </g>
  </g>
  <g class="st3">
    <g class="st3">
      <path d="M243,69.4l-2.3-4.2h1.4l1.5,2.9,1.5-2.9h1.4l-2.3,4.2v2.6h-1.3v-2.6Z"/>
      <path d="M246.9,69.5c0-1.6,1.2-2.7,2.6-2.7s2.6,1.1,2.6,2.7-1.2,2.7-2.6,2.7-2.6-1.1-2.6-2.7ZM250.9,69.5c0-1-.6-1.6-1.3-1.6s-1.3.6-1.3,1.6.6,1.6,1.3,1.6,1.3-.6,1.3-1.6Z"/>
      <path d="M253.1,69.9v-3h1.3v3c0,.6.3,1.1,1,1.1s1-.5,1-1.1v-3h1.3v5.1h-1.2v-.8c-.2.6-.8.9-1.5.9-1.1,0-1.8-.8-1.8-2.2Z"/>
      <path d="M258.9,66.9h1.3v.9c.4-.8,1.2-1,1.8-1v1.3c-1.1-.2-1.8.4-1.8,1.3v2.7h-1.3v-5.1Z"/>
      <path d="M265.8,66.9h1.2v.8c.3-.5.8-.9,1.6-.9,1.3,0,2.4,1.1,2.4,2.7s-1.1,2.7-2.4,2.7-1.3-.4-1.6-.9v2.8h-1.3v-7.2ZM269.7,69.5c0-1-.6-1.6-1.3-1.6s-1.3.6-1.3,1.6.6,1.6,1.3,1.6,1.3-.6,1.3-1.6Z"/>
      <path d="M272,64.6h1.3v7.4h-1.3v-7.4Z"/>
      <path d="M274.4,69.9v-3h1.3v3c0,.6.3,1.1,1,1.1s1-.5,1-1.1v-3h1.3v5.1h-1.2v-.8c-.2.6-.8.9-1.5.9-1.1,0-1.8-.8-1.8-2.2Z"/>
      <path d="M280,72.5h1.4c.1.3.5.6,1.2.6s1.3-.5,1.3-1.5v-.4c-.3.5-.8.9-1.6.9-1.3,0-2.4-1.1-2.4-2.6s1.1-2.7,2.4-2.7,1.4.4,1.6.9v-.8h1.2v4.7c0,1.8-1,2.6-2.6,2.6s-2.4-.9-2.5-1.7ZM283.9,69.5c0-1-.6-1.6-1.3-1.6s-1.3.6-1.3,1.6.6,1.5,1.3,1.5,1.3-.5,1.3-1.5Z"/>
      <path d="M286.4,64.9h1.3v1.2h-1.3v-1.2ZM286.4,66.9h1.3v5.1h-1.3v-5.1Z"/>
      <path d="M288.9,66.9h1.2v.8c.2-.6.8-.9,1.5-.9,1.1,0,1.8.8,1.8,2.2v3h-1.3v-3c0-.6-.3-1.1-1-1.1s-1,.5-1,1.1v3h-1.3v-5.1Z"/>
    </g>
    <g class="st3">
      <path d="M244.9,80.6c0-2.1,1.5-3.5,3.3-3.5s2.6.9,2.9,2.2h-.9c-.3-.9-.9-1.5-2.1-1.5s-2.3,1.1-2.3,2.7,1,2.8,2.4,2.8,1.8-.6,2-1.5h.9c-.4,1.4-1.4,2.3-2.9,2.3s-3.3-1.4-3.3-3.5Z"/>
      <path d="M251.9,81.5c0-1.6,1.1-2.7,2.5-2.7s2.5,1.2,2.5,2.7-1.1,2.7-2.5,2.7-2.5-1.1-2.5-2.7ZM256,81.5c0-1.3-.8-2-1.6-2s-1.6.7-1.6,2,.8,1.9,1.6,1.9,1.6-.7,1.6-1.9Z"/>
      <path d="M258,78.9h.8v.7c.3-.5.8-.8,1.4-.8s1.2.3,1.5.9c.3-.6.8-.9,1.6-.9s1.7.7,1.7,1.9v3.3h-.8v-3.3c0-.8-.4-1.2-1.1-1.2s-1.1.5-1.1,1.2v3.3h-.8v-3.3c0-.8-.4-1.2-1.1-1.2s-1.2.5-1.2,1.2v3.3h-.8v-5.1Z"/>
      <path d="M266.6,78.9h.8v1c.3-.6,1-1.1,1.8-1.1,1.4,0,2.3,1.2,2.3,2.7s-1,2.7-2.3,2.7-1.4-.4-1.7-1v3h-.8v-7.2ZM270.7,81.5c0-1.3-.7-2-1.6-2s-1.6.7-1.6,2,.7,1.9,1.6,1.9,1.6-.7,1.6-1.9Z"/>
      <path d="M272.5,84.9c.3,0,.5-.2.5-.6v-.3h-.5v-1.1h1v1.4c0,.8-.6,1-1.1,1.1v-.5Z"/>
      <path d="M277.5,81.5c0-1.5,1-2.7,2.3-2.7s1.4.5,1.7,1v-3.2h.8v7.4h-.8v-1c-.3.6-1,1.1-1.8,1.1-1.4,0-2.3-1.2-2.3-2.7ZM281.6,81.5c0-1.3-.7-2-1.6-2s-1.6.7-1.6,2,.7,1.9,1.6,1.9,1.6-.7,1.6-1.9Z"/>
      <path d="M284,76.9h.9v1h-.9v-1ZM284,78.9h.8v5.1h-.8v-5.1Z"/>
      <path d="M286,82.5h.8c.1.5.6.9,1.4.9s1.2-.3,1.2-.8-.2-.7-1.4-.8c-1.2-.2-1.9-.5-1.9-1.5s.5-1.5,1.9-1.5,1.9.6,2,1.5h-.8c-.1-.5-.6-.8-1.2-.8s-1.1.3-1.1.7.3.6,1.3.8c1.2.2,2,.4,2,1.6s-.9,1.6-2,1.6-2.1-.6-2.2-1.6Z"/>
      <path d="M291.7,82.3v-2.6h-.7v-.8h.7v-1.5h.8v1.5h1.2v.8h-1.2v2.6c0,.8.4,1.1,1,1.1s.2,0,.2,0v.7s-.1,0-.3,0c-1.1,0-1.8-.6-1.8-1.9Z"/>
    </g>
  </g>
  <polygon class="st0" points="472.3 103.1 360.2 103.1 365.5 99.1 468.3 99.1 468.3 50.6 472.3 45.2 472.3 103.1"/>
  <g class="st3">
    <g class="st3">
      <path d="M386,65.3h4.8v1.2h-3.5v1.5h2.9v1.2h-2.9v1.8h3.5v1.2h-4.8v-6.8Z"/>
      <path d="M391.8,66.9h1.2v.8c.2-.6.8-.9,1.5-.9,1.1,0,1.8.8,1.8,2.2v3h-1.3v-3c0-.6-.3-1.1-1-1.1s-1,.5-1,1.1v3h-1.3v-5.1Z"/>
      <path d="M397.3,69.5c0-1.6,1.2-2.7,2.6-2.7s2.1.7,2.4,1.9h-1.3c-.1-.5-.6-.7-1.1-.7s-1.3.6-1.3,1.6.6,1.6,1.3,1.6,1-.3,1.1-.7h1.3c-.3,1.1-1.2,1.9-2.4,1.9s-2.6-1.1-2.6-2.7Z"/>
      <path d="M403.2,65.3h2.4c1.9,0,3.2,1.3,3.2,3.4s-1.3,3.4-3.2,3.4h-2.4v-6.8ZM405.7,70.9c1.6,0,1.9-1.4,1.9-2.2s-.4-2.2-1.9-2.2h-1.1v4.4h1.1Z"/>
      <path d="M410.8,69.9c.1.8.6,1.2,1.4,1.2s.8-.2,1-.5h1.3c-.3,1-1.2,1.6-2.4,1.6s-2.7-1.1-2.7-2.7,1.2-2.7,2.6-2.7,2.8,1.3,2.6,3.1h-3.9ZM410.9,69h2.5c-.1-.7-.6-1.1-1.3-1.1s-1.1.4-1.3,1.1Z"/>
      <path d="M415.4,69.5c0-1.6,1.2-2.7,2.6-2.7s2.1.7,2.4,1.9h-1.3c-.1-.5-.6-.7-1.1-.7s-1.3.6-1.3,1.6.6,1.6,1.3,1.6,1-.3,1.1-.7h1.3c-.3,1.1-1.2,1.9-2.4,1.9s-2.6-1.1-2.6-2.7Z"/>
      <path d="M424.3,65.3h2.6c1.6,0,2.4.9,2.4,2.2s-.9,2.1-2.4,2.1h-1.4v2.4h-1.3v-6.8ZM427,68.5c.7,0,1.2-.3,1.2-1s-.4-1-1.2-1h-1.3v2h1.3Z"/>
      <path d="M430,69.5c0-1.6,1.2-2.7,2.6-2.7s2.6,1.1,2.6,2.7-1.2,2.7-2.6,2.7-2.6-1.1-2.6-2.7ZM434,69.5c0-1-.6-1.6-1.3-1.6s-1.3.6-1.3,1.6.6,1.6,1.3,1.6,1.3-.6,1.3-1.6Z"/>
      <path d="M435.8,70.5h1.3c.1.4.5.7,1.2.7s1-.2,1-.5-.3-.4-1.2-.6c-1-.2-2.1-.3-2.1-1.6s.7-1.6,2.1-1.6,2,.6,2.2,1.5h-1.3c0-.2-.3-.5-1-.5s-.9.2-.9.5.3.4,1.1.5c1,.2,2.2.3,2.2,1.7s-.8,1.6-2.2,1.6-2.4-.7-2.4-1.7Z"/>
      <path d="M441.6,70.1v-2.1h-.7v-1.1h.7v-1.4h1.3v1.4h1.1v1.1h-1.1v2.1c0,.7.3,1,.8,1s.2,0,.4,0v1.1c-.1,0-.3,0-.5,0-1.2,0-1.9-.7-1.9-2.1Z"/>
    </g>
    <g class="st3">
      <path d="M397,80.7c0-1.7.7-3.5,1.6-4.5h.7c-.9,1.2-1.4,2.8-1.4,4.5s.5,3.3,1.4,4.5h-.7c-1-1-1.6-2.8-1.6-4.5Z"/>
      <path d="M400.5,77.3h.9v6.8h-.9v-6.8Z"/>
      <path d="M403,78.9h.8v.7c.4-.6.9-.9,1.6-.9,1.1,0,1.8.8,1.8,2.1v3.2h-.8v-3.2c0-.8-.4-1.3-1.2-1.3s-1.3.5-1.3,1.3v3.2h-.8v-5.1Z"/>
      <path d="M408.1,78.9h.9l1.2,3.5c.1.3.2.8.2.8,0,0,0-.5.2-.8l1.2-3.5h.9l-1.9,5.1h-.9l-1.9-5.1Z"/>
      <path d="M413.3,81.5c0-1.6,1.1-2.7,2.5-2.7s2.4,1,2.4,3h-4c0,1.1.9,1.7,1.7,1.7s1.2-.3,1.4-.8h.9c-.2.9-1.1,1.6-2.2,1.6s-2.5-1.1-2.5-2.7ZM417.3,81c-.1-1-.7-1.5-1.5-1.5s-1.4.4-1.6,1.5h3.1Z"/>
      <path d="M419.4,78.9h.8v.9c.4-.7,1.1-1,1.7-.9v.8c-.9,0-1.7.3-1.7,1.4v3h-.8v-5.1Z"/>
      <path d="M422.6,82.5h.8c.1.5.6.9,1.4.9s1.2-.3,1.2-.8-.2-.7-1.4-.8c-1.2-.2-1.9-.5-1.9-1.5s.5-1.5,1.9-1.5,1.9.6,2,1.5h-.8c-.1-.5-.6-.8-1.2-.8s-1.1.3-1.1.7.3.6,1.3.8c1.1.2,2,.4,2,1.6s-.9,1.6-2,1.6-2.1-.6-2.2-1.6Z"/>
      <path d="M428,76.9h.9v1h-.9v-1ZM428,78.9h.8v5.1h-.8v-5.1Z"/>
      <path d="M430.1,81.5c0-1.6,1.1-2.7,2.5-2.7s2.5,1.2,2.5,2.7-1.1,2.7-2.5,2.7-2.5-1.1-2.5-2.7ZM434.2,81.5c0-1.3-.8-2-1.6-2s-1.6.7-1.6,2,.8,1.9,1.6,1.9,1.6-.7,1.6-1.9Z"/>
      <path d="M436.2,78.9h.8v.7c.4-.6.9-.9,1.6-.9,1.1,0,1.8.8,1.8,2.1v3.2h-.8v-3.2c0-.8-.4-1.3-1.2-1.3s-1.3.5-1.3,1.3v3.2h-.8v-5.1Z"/>
      <path d="M442.8,80.7c0-1.7-.5-3.3-1.4-4.5h.7c1,1,1.6,2.8,1.6,4.5s-.7,3.5-1.6,4.5h-.7c.9-1.2,1.4-2.8,1.4-4.5Z"/>
    </g>
  </g>
  <line class="st5" x1="114.7" y1="101.1" x2="114.7" y2="107.1"/>
  <polyline class="st5" points="114.7 115.3 114.7 121.3 120.7 121.3"/>
  <line class="st4" x1="132.2" y1="121.3" x2="403.5" y2="121.3"/>
  <polyline class="st5" points="409.2 121.3 415.2 121.3 415.2 115.3"/>
  <line class="st5" x1="415.2" y1="107.1" x2="415.2" y2="101.1"/>
  <g class="st3">
    <g class="st3">
      <path d="M199.8,140.5h.8c0,.9.7,1.5,1.7,1.5s1.6-.5,1.6-1.2-.3-.9-1.5-1.4c-1.3-.5-1.8-1-1.8-2s1-1.8,2.3-1.8,2.1.8,2.2,1.9h-.8c0-.7-.5-1.2-1.4-1.2s-1.4.4-1.4,1,.2.8,1.3,1.2c1.3.5,2,1,2,2.1s-1,1.9-2.4,1.9-2.5-.9-2.5-2.2Z"/>
      <path d="M206.9,135.2h.8l-.5,3c.3-.5.9-.8,1.5-.8,1.1,0,1.7.9,1.5,2.2l-.5,3.1h-.8l.5-3.1c.1-.9-.2-1.4-1-1.4s-1.3.5-1.4,1.2l-.6,3.3h-.8l1.3-7.4Z"/>
      <path d="M211.2,140.3c0-1.6,1.1-3,2.4-3s1.4.5,1.6,1.2l.2-1h.8l-.7,3.9c0,.5,0,1,0,1.2h-.7c0-.1,0-.5,0-.8-.3.6-1,.9-1.6.9-1.1,0-1.9-1-1.9-2.4ZM215,139.7c0-1-.5-1.7-1.3-1.7s-1.6,1-1.6,2.3.5,1.7,1.3,1.7,1.7-.9,1.7-2.3Z"/>
      <path d="M217.7,137.5h.8l-.2.9c.5-.8,1.3-1,1.8-.9v.8c-1.1,0-1.8.3-2,1.4l-.5,3h-.8l.9-5.1Z"/>
      <path d="M220.4,140.3c0-1.6,1.1-2.9,2.6-2.9s2.2,1.2,2,2.9h-3.8c0,1.1.6,1.7,1.4,1.7s1.1-.3,1.4-.8h.9c-.3.9-1.2,1.6-2.3,1.6s-2.2-1-2.2-2.5ZM221.3,139.6h2.9c0-1-.5-1.5-1.2-1.5s-1.5.6-1.7,1.5Z"/>
      <path d="M225.8,140.3c0-1.6,1.1-2.9,2.5-2.9s1.4.5,1.7,1.1l.6-3.2h.8l-1.3,7.4h-.8l.2-.9c-.4.6-1,1-1.7,1-1.2,0-2-1-1.9-2.5ZM229.8,139.7c0-1-.6-1.7-1.4-1.7s-1.7,1-1.7,2.2c0,1.2.5,1.7,1.3,1.7s1.8-.9,1.8-2.3Z"/>
      <path d="M235.3,137.5h.8v.8c.2-.6.9-1,1.5-1,1.2,0,2,1.1,2,2.5,0,1.6-1.1,2.9-2.5,2.9s-1.4-.5-1.7-1.1l-.5,3.1h-.8l1.3-7.2ZM238.7,139.8c0-1.2-.5-1.8-1.3-1.8s-1.8.9-1.8,2.3c0,1,.5,1.7,1.4,1.7s1.7-.9,1.7-2.2Z"/>
      <path d="M240.4,140.3c0-1.6,1.1-3,2.4-3s1.4.5,1.6,1.2l.2-1h.8l-.7,3.9c0,.5,0,1,0,1.2h-.7c0-.1,0-.5,0-.8-.3.6-1,.9-1.6.9-1.1,0-1.9-1-1.9-2.4ZM244.2,139.7c0-1-.5-1.7-1.3-1.7s-1.6,1-1.6,2.3.5,1.7,1.3,1.7,1.7-.9,1.7-2.3Z"/>
      <path d="M246.9,137.5h.8l-.2.9c.5-.8,1.3-1,1.8-.9v.8c-1.1,0-1.8.3-2,1.4l-.5,3h-.8l.9-5.1Z"/>
      <path d="M249.6,140.3c0-1.6,1.1-3,2.4-3s1.4.5,1.6,1.2l.2-1h.8l-.7,3.9c0,.5,0,1,0,1.2h-.7c0-.1,0-.5,0-.8-.3.6-1,.9-1.6.9-1.1,0-1.9-1-1.9-2.4ZM253.4,139.7c0-1-.5-1.7-1.3-1.7s-1.6,1-1.6,2.3.5,1.7,1.3,1.7,1.7-.9,1.7-2.3Z"/>
      <path d="M256.1,137.5h.8v.7c.2-.4.7-.8,1.3-.8s1.1.3,1.3.9c.4-.6.9-.9,1.6-.9,1,0,1.6.8,1.4,2l-.6,3.2h-.8l.6-3.3c.1-.8-.2-1.2-.8-1.2s-1.2.4-1.3,1.2l-.6,3.3h-.8l.6-3.3c.1-.8-.2-1.2-.8-1.2s-1.2.4-1.3,1.2l-.6,3.3h-.8l.9-5.1Z"/>
      <path d="M263.6,140.3c0-1.6,1.1-2.9,2.6-2.9s2.2,1.2,2,2.9h-3.8c0,1.1.6,1.7,1.4,1.7s1.1-.3,1.4-.8h.9c-.3.9-1.2,1.6-2.3,1.6s-2.2-1-2.2-2.5ZM264.5,139.6h2.9c0-1-.5-1.5-1.2-1.5s-1.5.6-1.7,1.5Z"/>
      <path d="M269.3,137.5h.7l.3-1.5h.8l-.3,1.5h1.1v.8h-1.3l-.5,2.7c-.1.8.1,1,.8,1s.2,0,.2,0v.7c-.1,0-.3,0-.4,0-1,0-1.6-.6-1.4-1.8l.5-2.6h-.7v-.8Z"/>
      <path d="M272.3,140.3c0-1.6,1.1-2.9,2.6-2.9s2.2,1.2,2,2.9h-3.8c0,1.1.6,1.7,1.4,1.7s1.1-.3,1.4-.8h.9c-.3.9-1.2,1.6-2.3,1.6s-2.2-1-2.2-2.5ZM273.2,139.6h2.9c0-1-.5-1.5-1.2-1.5s-1.5.6-1.7,1.5Z"/>
      <path d="M278.6,137.5h.8l-.2.9c.5-.8,1.3-1,1.8-.9v.8c-1.1,0-1.8.3-2,1.4l-.5,3h-.8l.9-5.1Z"/>
      <path d="M281,141.1h.8c0,.5.5.9,1.3.9s1.2-.4,1.2-.8c0-.3,0-.6-1.1-.9-1.1-.3-1.6-.7-1.6-1.5,0-.7.6-1.4,1.9-1.4s1.8.6,1.9,1.5h-.8c0-.5-.4-.8-1.1-.8s-1,.3-1,.7c0,.4.1.6,1,.8,1,.3,1.6.6,1.6,1.6,0,1-.8,1.5-2,1.5s-2-.7-2.1-1.6Z"/>
      <path d="M289.3,140c0-2,.9-4,2.5-5.2h.8c-1.6,1.5-2.3,3.3-2.3,5.3s.3,2.7.8,3.7h-.6c-.6-1-1.1-2.2-1.1-3.8Z"/>
      <path d="M292.3,137.5h.8l.6,3.5c0,.4,0,.8,0,.8,0,0,.2-.5.3-.8l1.8-3.5h.9l-2.7,5.1h-.8l-.9-5.1Z"/>
      <path d="M297.7,137.5h.8l-.9,5.1h-.8l.9-5.1ZM298,135.5h.9l-.2,1h-.9l.2-1Z"/>
      <path d="M299.2,140.3c0-1.6,1.1-3,2.4-3s1.4.5,1.6,1.2l.2-1h.8l-.7,3.9c0,.5,0,1,0,1.2h-.7c0-.1,0-.5,0-.8-.3.6-1,.9-1.6.9-1.1,0-1.9-1-1.9-2.4ZM303,139.7c0-1-.5-1.7-1.3-1.7s-1.6,1-1.6,2.3.5,1.7,1.3,1.7,1.7-.9,1.7-2.3Z"/>
      <path d="M307.3,143.1h.8c.1.6.6.9,1.3.9,1.2,0,1.6-.7,1.7-1.7v-.5c-.3.6-.9.9-1.6.9-1.2,0-2-1-1.9-2.5,0-1.6,1.1-2.9,2.5-2.9s1.5.5,1.7,1.2l.2-1h.8l-.9,4.9c-.3,1.7-1.1,2.4-2.5,2.4s-2.1-.7-2.1-1.6ZM311.7,139.7c0-1-.6-1.7-1.4-1.7s-1.7,1-1.7,2.2c0,1.2.5,1.7,1.3,1.7s1.8-.9,1.8-2.3Z"/>
      <path d="M314.4,137.5h.8v.7c.2-.4.7-.8,1.3-.8s1.1.3,1.3.9c.4-.6.9-.9,1.6-.9,1,0,1.6.8,1.4,2l-.6,3.2h-.8l.6-3.3c.1-.8-.2-1.2-.8-1.2s-1.2.4-1.3,1.2l-.6,3.3h-.8l.6-3.3c.1-.8-.2-1.2-.8-1.2s-1.2.4-1.3,1.2l-.6,3.3h-.8l.9-5.1Z"/>
      <path d="M321.8,140.3c0-1.6,1.1-2.9,2.6-2.9s2.2,1.2,2,2.9h-3.8c0,1.1.6,1.7,1.4,1.7s1.1-.3,1.4-.8h.9c-.3.9-1.2,1.6-2.3,1.6s-2.2-1-2.2-2.5ZM322.7,139.6h2.9c0-1-.5-1.5-1.2-1.5s-1.5.6-1.7,1.5Z"/>
      <path d="M328.1,137.5h.8v.7c.2-.4.7-.8,1.3-.8s1.1.3,1.3.9c.4-.6.9-.9,1.6-.9,1,0,1.6.8,1.4,2l-.6,3.2h-.8l.6-3.3c.1-.8-.2-1.2-.8-1.2s-1.2.4-1.3,1.2l-.6,3.3h-.8l.6-3.3c.1-.8-.2-1.2-.8-1.2s-1.2.4-1.3,1.2l-.6,3.3h-.8l.9-5.1Z"/>
      <path d="M337.8,138.6c0,2-.9,4-2.5,5.2h-.8c1.6-1.5,2.3-3.3,2.3-5.3s-.3-2.7-.8-3.7h.6c.6,1,1.1,2.2,1.1,3.8Z"/>
    </g>
  </g>
  <polygon class="st0" points="194.7 74.4 192 71.9 192 73 180.9 73 183.6 75.2 194.7 75.2 194.7 74.4"/>
  <polygon class="st0" points="201.1 71.7 201.1 73 189.9 78.1 192.1 80.3 203.3 75.2 203.3 73.9 201.1 71.7"/>
  <polygon class="st0" points="198.2 73 199.5 72.4 189.9 68 192.1 70.2 198.2 73"/>
  <polygon class="st0" points="342.7 74.4 340 71.9 340 73 328.9 73 331.5 75.2 342.7 75.2 342.7 74.4"/>
  <polygon class="st0" points="349.1 71.7 349.1 73 337.9 78.1 340.1 80.3 351.3 75.2 351.3 73.9 349.1 71.7"/>
  <polygon class="st0" points="346.2 73 347.5 72.4 337.9 68 340.1 70.2 346.2 73"/>
  <g class="st3">
    <g class="st3">
      <path d="M15.4,17.6h11.4v2.8h-8.4v3.6h7.1v2.9h-7.1v4.2h8.5v2.9h-11.6v-16.3Z"/>
    </g>
    <g class="st3">
      <path d="M28.5,21.5h2.9v1.9c.6-1.5,2-2.3,3.6-2.3,2.7,0,4.4,2,4.4,5.4v7.3h-3v-7.3c0-1.5-.6-2.6-2.4-2.6s-2.5,1.1-2.5,2.6v7.3h-3v-12.4Z"/>
    </g>
    <g class="st3">
      <path d="M40.8,27.7c0-3.7,2.9-6.5,6.3-6.5s5.1,1.8,5.8,4.5h-3.1c-.4-1.1-1.3-1.8-2.6-1.8s-3.1,1.4-3.1,3.8,1.4,3.7,3.1,3.7,2.3-.7,2.6-1.8h3.2c-.6,2.7-2.8,4.5-5.8,4.5s-6.3-2.7-6.3-6.5Z"/>
    </g>
    <g class="st3">
      <path d="M54.3,17.6h5.9c4.7,0,7.7,3.1,7.7,8.2s-3.1,8.2-7.7,8.2h-5.9v-16.3ZM60.2,31c3.8,0,4.5-3.4,4.5-5.3s-.9-5.3-4.5-5.3h-2.8v10.6h2.8Z"/>
    </g>
    <g class="st3">
      <path d="M71.8,28.7c.3,1.9,1.5,2.8,3.4,2.8s2-.4,2.4-1.2h3.2c-.7,2.5-2.9,3.8-5.7,3.8s-6.5-2.7-6.5-6.5,2.8-6.5,6.3-6.5,6.6,3.2,6.2,7.5h-9.3ZM71.9,26.5h6.1c-.3-1.7-1.4-2.7-3-2.7s-2.7,1-3,2.7Z"/>
    </g>
    <g class="st3">
      <path d="M81.9,27.7c0-3.7,2.9-6.5,6.3-6.5s5.1,1.8,5.8,4.5h-3.1c-.4-1.1-1.3-1.8-2.6-1.8s-3.1,1.4-3.1,3.8,1.4,3.7,3.1,3.7,2.3-.7,2.6-1.8h3.2c-.6,2.7-2.8,4.5-5.8,4.5s-6.3-2.7-6.3-6.5Z"/>
    </g>
  </g>
  <g class="st3">
    <g class="st3">
      <path class="st0" d="M445.6,165.5h.6c0,.6.5,1.1,1.3,1.1s1.2-.4,1.2-.9-.2-.7-1.3-1c-1.1-.2-1.7-.6-1.7-1.5s.7-1.3,1.6-1.3,1.7.6,1.8,1.4h-.6c0-.5-.4-.9-1.2-.9s-1,.3-1,.8.2.6,1.2.9c1.1.3,1.8.6,1.8,1.6s-.8,1.4-1.8,1.4-1.9-.7-2-1.6Z"/>
    </g>
    <g class="st3">
      <path class="st0" d="M450.4,165.7v-1.9h-.6v-.6h.6v-1.1h.6v1.1h.9v.6h-.9v1.9c0,.6.3.8.7.8s.2,0,.2,0v.6s0,0-.2,0c-.8,0-1.3-.5-1.3-1.4Z"/>
    </g>
    <g class="st3">
      <path class="st0" d="M452.5,165.6v-2.3h.6v2.3c0,.6.3,1,.9,1s1-.4,1-.9v-2.4h.6v3.8h-.6v-.5c-.3.4-.6.6-1.1.6-.8,0-1.3-.6-1.3-1.6Z"/>
    </g>
    <g class="st3">
      <path class="st0" d="M456.3,165.2c0-1.1.7-2,1.7-2s1.1.4,1.3.8v-2.4h.6v5.5h-.6v-.7c-.2.5-.7.8-1.3.8-1,0-1.7-.9-1.7-2ZM459.3,165.2c0-.9-.5-1.4-1.2-1.4s-1.2.5-1.2,1.4.5,1.4,1.2,1.4,1.2-.5,1.2-1.4Z"/>
    </g>
    <g class="st3">
      <path class="st0" d="M460.9,161.8h.7v.7h-.7v-.7ZM461,163.3h.6v3.8h-.6v-3.8Z"/>
    </g>
    <g class="st3">
      <path class="st0" d="M462.3,165.2c0-1.1.8-2,1.8-2s1.8.9,1.8,2-.8,2-1.8,2-1.8-.8-1.8-2ZM465.3,165.2c0-.9-.6-1.4-1.2-1.4s-1.2.5-1.2,1.4.6,1.4,1.2,1.4,1.2-.5,1.2-1.4Z"/>
    </g>
    <g class="st3">
      <path class="st7" d="M466.5,165.4h1c0,.5.5.9,1.2.9s1.1-.2,1.1-.6-.5-.6-1.4-.8c-.8-.2-1.6-.4-1.6-1.5s.7-1.5,1.8-1.5,1.9.8,2,1.6h-.9c0-.5-.4-.7-1-.7s-.9.2-.9.6.4.5,1.2.7c.9.2,1.9.4,1.9,1.6s-.7,1.5-1.9,1.5-2.1-.6-2.2-1.7Z"/>
      <path class="st7" d="M471.4,161.6h.9v2.2c.2-.4.6-.6,1.1-.6.8,0,1.4.6,1.4,1.7v2.2h-.9v-2.2c0-.5-.2-.8-.7-.8s-.8.3-.8.8v2.2h-.9v-5.5Z"/>
      <path class="st7" d="M475.4,165.2c0-1.1.9-2,1.9-2s1.9.8,1.9,2-.9,2-1.9,2-1.9-.8-1.9-2ZM478.3,165.2c0-.7-.4-1.2-1-1.2s-1,.4-1,1.2.4,1.1,1,1.1,1-.4,1-1.1Z"/>
    </g>
    <g class="st3">
      <path class="st7" d="M479.6,165.5v-2.2h.9v2.2c0,.5.2.8.7.8s.8-.3.8-.8v-2.2h.9v3.8h-.9v-.6c-.2.4-.6.7-1.1.7-.8,0-1.4-.6-1.4-1.7Z"/>
    </g>
    <g class="st3">
      <path class="st7" d="M483.9,165.6v-1.5h-.5v-.8h.5v-1.1h.9v1.1h.8v.8h-.8v1.5c0,.5.2.7.6.7s.2,0,.3,0v.8c-.1,0-.2,0-.4,0-.9,0-1.4-.5-1.4-1.5Z"/>
    </g>
    <g class="st3">
      <path class="st1" d="M486,165.4h1c0,.5.5.9,1.2.9s1.1-.2,1.1-.6-.5-.6-1.4-.8c-.8-.2-1.6-.4-1.6-1.5s.7-1.5,1.8-1.5,1.9.8,2,1.6h-.9c0-.5-.4-.7-1-.7s-.9.2-.9.6.4.5,1.2.7c.9.2,1.9.4,1.9,1.6s-.7,1.5-1.9,1.5-2.1-.6-2.2-1.7Z"/>
      <path class="st1" d="M490.9,161.6h.9v2.2c.2-.4.6-.6,1.1-.6.8,0,1.4.6,1.4,1.7v2.2h-.9v-2.2c0-.5-.2-.8-.7-.8s-.8.3-.8.8v2.2h-.9v-5.5Z"/>
      <path class="st1" d="M494.9,165.2c0-1.1.9-2,1.9-2s1.9.8,1.9,2-.9,2-1.9,2-1.9-.8-1.9-2ZM497.8,165.2c0-.7-.4-1.2-1-1.2s-1,.4-1,1.2.4,1.1,1,1.1,1-.4,1-1.1Z"/>
    </g>
    <g class="st3">
      <path class="st1" d="M499.1,165.5v-2.2h.9v2.2c0,.5.2.8.7.8s.8-.3.8-.8v-2.2h.9v3.8h-.9v-.6c-.2.4-.6.7-1.1.7-.8,0-1.4-.6-1.4-1.7Z"/>
    </g>
    <g class="st3">
      <path class="st1" d="M503.4,165.6v-1.5h-.5v-.8h.5v-1.1h.9v1.1h.8v.8h-.8v1.5c0,.5.2.7.6.7s.2,0,.3,0v.8c-.1,0-.2,0-.4,0-.9,0-1.4-.5-1.4-1.5Z"/>
    </g>
    <g class="st3">
      <path class="st2" d="M505.5,165.4h1c0,.5.5.9,1.2.9s1.1-.2,1.1-.6-.5-.6-1.4-.8c-.8-.2-1.6-.4-1.6-1.5s.7-1.5,1.8-1.5,1.9.8,2,1.6h-.9c0-.5-.4-.7-1-.7s-.9.2-.9.6.4.5,1.2.7c.9.2,1.9.4,1.9,1.6s-.7,1.5-1.9,1.5-2.1-.6-2.2-1.7Z"/>
      <path class="st2" d="M510.5,161.6h.9v2.2c.2-.4.6-.6,1.1-.6.8,0,1.4.6,1.4,1.7v2.2h-.9v-2.2c0-.5-.2-.8-.7-.8s-.8.3-.8.8v2.2h-.9v-5.5Z"/>
      <path class="st2" d="M514.5,165.2c0-1.1.9-2,1.9-2s1.9.8,1.9,2-.9,2-1.9,2-1.9-.8-1.9-2ZM517.4,165.2c0-.7-.4-1.2-1-1.2s-1,.4-1,1.2.4,1.1,1,1.1,1-.4,1-1.1Z"/>
    </g>
    <g class="st3">
      <path class="st2" d="M518.7,165.5v-2.2h.9v2.2c0,.5.2.8.7.8s.8-.3.8-.8v-2.2h.9v3.8h-.9v-.6c-.2.4-.6.7-1.1.7-.8,0-1.4-.6-1.4-1.7Z"/>
    </g>
    <g class="st3">
      <path class="st2" d="M523,165.6v-1.5h-.5v-.8h.5v-1.1h.9v1.1h.8v.8h-.8v1.5c0,.5.2.7.6.7s.2,0,.3,0v.8c-.1,0-.2,0-.4,0-.9,0-1.4-.5-1.4-1.5Z"/>
    </g>
  </g>
</svg>